<mxfile host="app.diagrams.net" modified="2023-10-16T02:31:01.401Z" agent="Mozilla/5.0 (Macintosh; Intel Mac OS X 10_15_7) AppleWebKit/605.1.15 (KHTML, like Gecko) Version/16.6 Safari/605.1.15" etag="dJ7KZoYEz3tZ9tMgfcRe" version="22.0.4" type="device">
  <diagram name="Page-1" id="g1_yAomx_UEzNeh92aMA">
    <mxGraphModel dx="1354" dy="727" grid="0" gridSize="10" guides="1" tooltips="1" connect="1" arrows="1" fold="1" page="0" pageScale="1" pageWidth="850" pageHeight="1100" math="0" shadow="0">
      <root>
        <mxCell id="0" />
        <mxCell id="1" parent="0" />
        <mxCell id="2airJBLPUR5L6f8H8afh-10" value="&lt;font style=&quot;font-size: 16px;&quot;&gt;GitHub&lt;/font&gt;" style="whiteSpace=wrap;html=1;align=center;verticalAlign=top;" parent="1" vertex="1">
          <mxGeometry x="-359" y="100" width="317" height="966" as="geometry" />
        </mxCell>
        <mxCell id="2airJBLPUR5L6f8H8afh-14" value="Workflow&lt;br&gt;on: workflow_dispatch" style="rounded=1;whiteSpace=wrap;html=1;align=center;verticalAlign=top;" parent="1" vertex="1">
          <mxGeometry x="-318.5" y="353" width="236" height="674" as="geometry" />
        </mxCell>
        <mxCell id="x9vqmv9MeFIwDBl5bgRP-1" value="GitHub Action" style="rounded=1;whiteSpace=wrap;html=1;align=center;verticalAlign=top;" vertex="1" parent="1">
          <mxGeometry x="-295.5" y="635" width="190" height="365" as="geometry" />
        </mxCell>
        <mxCell id="2airJBLPUR5L6f8H8afh-2" value="&lt;font style=&quot;font-size: 16px;&quot;&gt;Cloudflare Worker&lt;/font&gt;" style="whiteSpace=wrap;html=1;align=center;verticalAlign=top;" parent="1" vertex="1">
          <mxGeometry x="6" y="100" width="359" height="477" as="geometry" />
        </mxCell>
        <mxCell id="2airJBLPUR5L6f8H8afh-15" value="Worker Script" style="rounded=1;whiteSpace=wrap;html=1;align=center;verticalAlign=top;" parent="1" vertex="1">
          <mxGeometry x="25" y="145" width="310" height="391" as="geometry" />
        </mxCell>
        <mxCell id="2airJBLPUR5L6f8H8afh-25" style="edgeStyle=orthogonalEdgeStyle;rounded=0;orthogonalLoop=1;jettySize=auto;html=1;" parent="1" source="2airJBLPUR5L6f8H8afh-17" target="2airJBLPUR5L6f8H8afh-8" edge="1">
          <mxGeometry relative="1" as="geometry" />
        </mxCell>
        <mxCell id="2airJBLPUR5L6f8H8afh-17" value="WebHook&lt;br style=&quot;border-color: var(--border-color);&quot;&gt;Event" style="triangle;whiteSpace=wrap;html=1;align=left;" parent="1" vertex="1">
          <mxGeometry x="-245" y="173" width="89" height="80" as="geometry" />
        </mxCell>
        <mxCell id="2airJBLPUR5L6f8H8afh-18" value="Finish&lt;br&gt;Check Run" style="ellipse;whiteSpace=wrap;html=1;" parent="1" vertex="1">
          <mxGeometry x="-240.5" y="897" width="80" height="80" as="geometry" />
        </mxCell>
        <mxCell id="2airJBLPUR5L6f8H8afh-34" style="edgeStyle=orthogonalEdgeStyle;rounded=0;orthogonalLoop=1;jettySize=auto;html=1;" parent="1" source="2airJBLPUR5L6f8H8afh-22" target="2airJBLPUR5L6f8H8afh-18" edge="1">
          <mxGeometry relative="1" as="geometry" />
        </mxCell>
        <mxCell id="2airJBLPUR5L6f8H8afh-22" value="Application&lt;br style=&quot;border-color: var(--border-color);&quot;&gt;Code" style="shape=hexagon;perimeter=hexagonPerimeter2;whiteSpace=wrap;html=1;fixedSize=1;" parent="1" vertex="1">
          <mxGeometry x="-260.5" y="785" width="120" height="80" as="geometry" />
        </mxCell>
        <mxCell id="2airJBLPUR5L6f8H8afh-33" style="edgeStyle=orthogonalEdgeStyle;rounded=0;orthogonalLoop=1;jettySize=auto;html=1;" parent="1" source="2airJBLPUR5L6f8H8afh-23" target="2airJBLPUR5L6f8H8afh-22" edge="1">
          <mxGeometry relative="1" as="geometry" />
        </mxCell>
        <mxCell id="2airJBLPUR5L6f8H8afh-23" value="Receive&lt;br&gt;Request" style="ellipse;whiteSpace=wrap;html=1;" parent="1" vertex="1">
          <mxGeometry x="-240.5" y="673" width="80" height="80" as="geometry" />
        </mxCell>
        <mxCell id="2airJBLPUR5L6f8H8afh-26" style="edgeStyle=orthogonalEdgeStyle;rounded=0;orthogonalLoop=1;jettySize=auto;html=1;" parent="1" source="2airJBLPUR5L6f8H8afh-8" target="2airJBLPUR5L6f8H8afh-24" edge="1">
          <mxGeometry relative="1" as="geometry" />
        </mxCell>
        <mxCell id="2airJBLPUR5L6f8H8afh-8" value="Verify&lt;br&gt;Request" style="ellipse;whiteSpace=wrap;html=1;" parent="1" vertex="1">
          <mxGeometry x="100.5" y="173" width="80" height="80" as="geometry" />
        </mxCell>
        <mxCell id="2airJBLPUR5L6f8H8afh-31" style="edgeStyle=orthogonalEdgeStyle;rounded=0;orthogonalLoop=1;jettySize=auto;html=1;exitX=0.5;exitY=1;exitDx=0;exitDy=0;" parent="1" source="2airJBLPUR5L6f8H8afh-11" target="2airJBLPUR5L6f8H8afh-12" edge="1">
          <mxGeometry relative="1" as="geometry" />
        </mxCell>
        <mxCell id="2airJBLPUR5L6f8H8afh-11" value="Create&lt;br&gt;Check Run" style="ellipse;whiteSpace=wrap;html=1;" parent="1" vertex="1">
          <mxGeometry x="222" y="346" width="80" height="80" as="geometry" />
        </mxCell>
        <mxCell id="x9vqmv9MeFIwDBl5bgRP-5" style="edgeStyle=orthogonalEdgeStyle;rounded=0;orthogonalLoop=1;jettySize=auto;html=1;" edge="1" parent="1" source="2airJBLPUR5L6f8H8afh-12" target="x9vqmv9MeFIwDBl5bgRP-4">
          <mxGeometry relative="1" as="geometry" />
        </mxCell>
        <mxCell id="2airJBLPUR5L6f8H8afh-12" value="Dispatch&lt;br&gt;Workflow" style="ellipse;whiteSpace=wrap;html=1;" parent="1" vertex="1">
          <mxGeometry x="100.5" y="407.5" width="80" height="80" as="geometry" />
        </mxCell>
        <mxCell id="2airJBLPUR5L6f8H8afh-29" style="edgeStyle=orthogonalEdgeStyle;rounded=0;orthogonalLoop=1;jettySize=auto;html=1;" parent="1" source="2airJBLPUR5L6f8H8afh-24" target="2airJBLPUR5L6f8H8afh-12" edge="1">
          <mxGeometry relative="1" as="geometry" />
        </mxCell>
        <mxCell id="2airJBLPUR5L6f8H8afh-30" style="edgeStyle=orthogonalEdgeStyle;rounded=0;orthogonalLoop=1;jettySize=auto;html=1;entryX=0.5;entryY=0;entryDx=0;entryDy=0;" parent="1" source="2airJBLPUR5L6f8H8afh-24" target="2airJBLPUR5L6f8H8afh-11" edge="1">
          <mxGeometry relative="1" as="geometry" />
        </mxCell>
        <mxCell id="2airJBLPUR5L6f8H8afh-24" value="Application&lt;br style=&quot;border-color: var(--border-color);&quot;&gt;Code" style="shape=hexagon;perimeter=hexagonPerimeter2;whiteSpace=wrap;html=1;fixedSize=1;" parent="1" vertex="1">
          <mxGeometry x="80.5" y="280" width="120" height="80" as="geometry" />
        </mxCell>
        <mxCell id="x9vqmv9MeFIwDBl5bgRP-7" style="edgeStyle=orthogonalEdgeStyle;rounded=0;orthogonalLoop=1;jettySize=auto;html=1;" edge="1" parent="1" source="x9vqmv9MeFIwDBl5bgRP-2" target="x9vqmv9MeFIwDBl5bgRP-1">
          <mxGeometry relative="1" as="geometry" />
        </mxCell>
        <mxCell id="x9vqmv9MeFIwDBl5bgRP-2" value="Checkout" style="ellipse;whiteSpace=wrap;html=1;" vertex="1" parent="1">
          <mxGeometry x="-240.5" y="521" width="80" height="80" as="geometry" />
        </mxCell>
        <mxCell id="x9vqmv9MeFIwDBl5bgRP-6" style="edgeStyle=orthogonalEdgeStyle;rounded=0;orthogonalLoop=1;jettySize=auto;html=1;" edge="1" parent="1" source="x9vqmv9MeFIwDBl5bgRP-4" target="x9vqmv9MeFIwDBl5bgRP-2">
          <mxGeometry relative="1" as="geometry" />
        </mxCell>
        <mxCell id="x9vqmv9MeFIwDBl5bgRP-4" value="Receive&lt;br&gt;Request" style="ellipse;whiteSpace=wrap;html=1;" vertex="1" parent="1">
          <mxGeometry x="-240.5" y="407.5" width="80" height="80" as="geometry" />
        </mxCell>
      </root>
    </mxGraphModel>
  </diagram>
</mxfile>
